# xmcd
#
# Track frame offsets: 
#        300
#        16398
#        43414
#        61622
#        83268
#        96172
#        116965
#        138764
#        157699
#        178329
#        194735
#        211973
#
# Disc length: 3122 seconds
#
# Revision: 0
# Processed by: cddbd v1.5.2PL0 Copyright (c) Steve Scherf et al.
# Submitted via: ExactAudioCopy v0.99pb5
#
DISCID=a00c2e0c
DTITLE=AndersonBurko - Enjoy The Show
DYEAR=2009
DGENRE=Alt. Rock
TTITLE0=My Way Back To You
TTITLE1=Something About You
TTITLE2=I Wanna Buy Your Truck
TTITLE3=Stay Here With You
TTITLE4=Almost Every Time
TTITLE5=Let Go Of Me
TTITLE6=Ties That Bind
TTITLE7=Long Time Falling
TTITLE8=It'll Be Alright
TTITLE9=Missinipe Morning
TTITLE10=It's Hard
TTITLE11=Living Without You
EXTD=
EXTT0=
EXTT1=
EXTT2=
EXTT3=
EXTT4=
EXTT5=
EXTT6=
EXTT7=
EXTT8=
EXTT9=
EXTT10=
EXTT11=
PLAYORDER=
